<svg version="1.1" preserveAspectRatio="none" xmlns="http://www.w3.org/2000/svg" width="40" height="40" viewBox="0 0 500 500"><rect  fill="#012B28" fill-opacity="1"/><svg viewBox="245.2888 133.3876 499.6534 298.5709" width="333" height="198.98615660375773" x="83.5px" y="150.5069px" xmlns="http://www.w3.org/2000/svg" xmlns:xlink="http://www.w3.org/1999/xlink" preserveAspectRatio="none"><defs></defs><style>.companyName {fill:#EBB42C;fill-opacity:1;}.icon2 {fill:#E7240E;fill-opacity:1;}.icon3 {fill:#B47049;fill-opacity:1;}.icon3-str {stroke:#B47049;stroke-opacity:1;}.text {fill:#EBB42C;fill-opacity:1;}</style><g opacity="1" transform="rotate(0 291.7245 419.6385)">
<svg width="406.782" height="12.32" x="291.7245" y="419.6385" version="1.1" preserveAspectRatio="none" viewBox="4.32 -26.8 1077.6000000000001 32.64">
  <g transform="matrix(1 0 0 1 0 0)" class="text"><path id="id-6izo4zJp31" d="M22.80-23.40L7.52-23.40L7.52-14.88L19.44-14.88L19.44-11.88L7.52-11.88L7.52 0L4.32 0L4.32-26.40L22.80-26.40L22.80-23.40Z M43.92-3L59.04-3L59.04 0L40.72 0L40.72-26.40L43.92-26.40L43.92-3Z M94.28 0L91.48-7.32L79.52-7.32L76.72 0L73.36 0L83.64-26.40L87.44-26.40L97.68 0L94.28 0ZM80.68-10.32L90.32-10.32L86.76-19.68L85.52-23.36L85.44-23.36L84.28-19.80L80.68-10.32Z M133.12-26.40L123.12 0L119.48 0L109.44-26.40L112.88-26.40L119.60-8.16L121.28-2.92L122.96-8.12L129.68-26.40L133.12-26.40Z M160.56-26.80Q164.28-26.80 167.04-25.14Q169.80-23.48 171.30-20.42Q172.80-17.36 172.80-13.20L172.80-13.20Q172.80-9.04 171.30-5.98Q169.80-2.92 167.04-1.26Q164.28 0.40 160.56 0.40L160.56 0.40Q156.84 0.40 154.08-1.26Q151.32-2.92 149.82-5.98Q148.32-9.04 148.32-13.20L148.32-13.20Q148.32-17.36 149.82-20.42Q151.32-23.48 154.08-25.14Q156.84-26.80 160.56-26.80L160.56-26.80ZM160.56-23.80Q156.44-23.80 154.06-20.98Q151.68-18.16 151.68-13.20L151.68-13.20Q151.68-8.24 154.06-5.42Q156.44-2.60 160.56-2.60L160.56-2.60Q164.68-2.60 167.06-5.42Q169.44-8.24 169.44-13.20L169.44-13.20Q169.44-18.16 167.06-20.98Q164.68-23.80 160.56-23.80L160.56-23.80Z M208.56 0L201.36-10.96L195.04-10.96L195.04 0L191.84 0L191.84-26.40L201.84-26.40Q205.88-26.40 208.32-24.32Q210.76-22.24 210.76-18.68L210.76-18.68Q210.76-15.88 209.20-13.96Q207.64-12.04 204.92-11.32L204.92-11.32L212.36 0L208.56 0ZM195.04-23.40L195.04-13.96L201.80-13.96Q207.40-13.96 207.40-18.68L207.40-18.68Q207.40-23.40 201.80-23.40L201.80-23.40L195.04-23.40Z M248.92-23.40L233.64-23.40L233.64-14.88L245.56-14.88L245.56-11.88L233.64-11.88L233.64 0L230.44 0L230.44-26.40L248.92-26.40L248.92-23.40Z M287.28-26.40L287.28-9.84Q287.28-4.76 284.62-2.18Q281.96 0.40 276.92 0.40L276.92 0.40Q271.88 0.40 269.22-2.20Q266.56-4.80 266.56-9.84L266.56-9.84L266.56-26.40L269.76-26.40L269.76-10.64Q269.76-6.48 271.50-4.54Q273.24-2.60 276.92-2.60L276.92-2.60Q280.60-2.60 282.34-4.54Q284.08-6.48 284.08-10.64L284.08-10.64L284.08-26.40L287.28-26.40Z M310.84-3L325.96-3L325.96 0L307.64 0L307.64-26.40L310.84-26.40L310.84-3Z M389.40-6.76Q388.16-3.40 385.32-1.50Q382.48 0.40 378.76 0.40L378.76 0.40Q375.04 0.40 372.28-1.26Q369.52-2.92 368.02-5.98Q366.52-9.04 366.52-13.20L366.52-13.20Q366.52-17.32 368.02-20.40Q369.52-23.48 372.28-25.14Q375.04-26.80 378.68-26.80L378.68-26.80Q382.48-26.80 385.06-25.24Q387.64-23.68 388.92-20.64L388.92-20.64L385.76-19.16Q384.88-21.48 383.20-22.64Q381.52-23.80 378.92-23.80L378.92-23.80Q376.20-23.80 374.16-22.54Q372.12-21.28 371.00-18.88Q369.88-16.48 369.88-13.20L369.88-13.20Q369.88-8.24 372.26-5.42Q374.64-2.60 378.76-2.60L378.76-2.60Q381.44-2.60 383.40-3.96Q385.36-5.32 386.20-7.96L386.20-7.96L389.40-6.76Z M424.28 0L417.08-10.96L410.76-10.96L410.76 0L407.56 0L407.56-26.40L417.56-26.40Q421.60-26.40 424.04-24.32Q426.48-22.24 426.48-18.68L426.48-18.68Q426.48-15.88 424.92-13.96Q423.36-12.04 420.64-11.32L420.64-11.32L428.08 0L424.28 0ZM410.76-23.40L410.76-13.96L417.52-13.96Q423.12-13.96 423.12-18.68L423.12-18.68Q423.12-23.40 417.52-23.40L417.52-23.40L410.76-23.40Z M449.36-3L465.28-3L465.28 0L446.16 0L446.16-26.40L464.68-26.40L464.68-23.40L449.36-23.40L449.36-14.88L461.28-14.88L461.28-11.88L449.36-11.88L449.36-3Z M501.32 0L498.52-7.32L486.56-7.32L483.76 0L480.40 0L490.68-26.40L494.48-26.40L504.72 0L501.32 0ZM487.72-10.32L497.36-10.32L493.80-19.68L492.56-23.36L492.48-23.36L491.32-19.80L487.72-10.32Z M537.04-26.40L537.04-23.40L527.84-23.40L527.84 0L524.64 0L524.64-23.40L515.44-23.40L515.44-26.40L537.04-26.40Z M557.84-26.40L557.84 0L554.64 0L554.64-26.40L557.84-26.40Z M589.12-26.80Q592.84-26.80 595.60-25.14Q598.36-23.48 599.86-20.42Q601.36-17.36 601.36-13.20L601.36-13.20Q601.36-9.04 599.86-5.98Q598.36-2.92 595.60-1.26Q592.84 0.40 589.12 0.40L589.12 0.40Q585.40 0.40 582.64-1.26Q579.88-2.92 578.38-5.98Q576.88-9.04 576.88-13.20L576.88-13.20Q576.88-17.36 578.38-20.42Q579.88-23.48 582.64-25.14Q585.40-26.80 589.12-26.80L589.12-26.80ZM589.12-23.80Q585.00-23.80 582.62-20.98Q580.24-18.16 580.24-13.20L580.24-13.20Q580.24-8.24 582.62-5.42Q585.00-2.60 589.12-2.60L589.12-2.60Q593.24-2.60 595.62-5.42Q598.00-8.24 598.00-13.20L598.00-13.20Q598.00-18.16 595.62-20.98Q593.24-23.80 589.12-23.80L589.12-23.80Z M641.12-26.40L641.12 0L637.16 0L626.12-17.68L623.32-22.88L623.28-22.88L623.44-18.64L623.44 0L620.40 0L620.40-26.40L624.36-26.40L635.36-8.80L638.20-3.52L638.24-3.52L638.08-7.76L638.08-26.40L641.12-26.40Z M670.24-26.80Q677.32-26.80 680.44-21.20L680.44-21.20L677.68-18.96Q676.48-21.60 674.82-22.70Q673.16-23.80 670.28-23.80L670.28-23.80Q667.24-23.80 665.50-22.54Q663.76-21.28 663.76-19.32L663.76-19.32Q663.76-18.04 664.44-17.20Q665.12-16.36 666.70-15.74Q668.28-15.12 671.08-14.64L671.08-14.64Q676.32-13.76 678.50-12Q680.68-10.24 680.68-7.12L680.68-7.12Q680.68-4.88 679.42-3.18Q678.16-1.48 675.84-0.54Q673.52 0.40 670.48 0.40L670.48 0.40Q666.48 0.40 663.66-1.16Q660.84-2.72 659.36-5.32L659.36-5.32L662.12-7.56Q663.20-5.20 665.30-3.90Q667.40-2.60 670.56-2.60L670.56-2.60Q673.68-2.60 675.52-3.74Q677.36-4.88 677.36-6.96L677.36-6.96Q677.36-8.72 675.76-9.76Q674.16-10.80 670.08-11.52L670.08-11.52Q664.80-12.44 662.60-14.16Q660.40-15.88 660.40-18.96L660.40-18.96Q660.40-21.08 661.60-22.88Q662.80-24.68 665.04-25.74Q667.28-26.80 670.24-26.80L670.24-26.80Z M700.40-4.80Q701.80-4.80 702.60-3.72Q703.40-2.64 703.40-0.92L703.40-0.92Q703.40 1.20 702.32 3Q701.24 4.80 699.04 5.84L699.04 5.84L697.36 4.28Q698.92 3.76 699.96 2.64Q701 1.52 701.28 0.20L701.28 0.20L701.12 0.12Q700.76 0.40 700 0.40L700 0.40Q699.16 0.40 698.48-0.26Q697.80-0.92 697.80-2.12L697.80-2.12Q697.80-3.20 698.56-4Q699.32-4.80 700.40-4.80L700.40-4.80Z M773.20-26.40L773.20 0L770.16 0L770.16-16.60L770.52-23.56L770.48-23.56L761.80 0L759.08 0L750.40-23.56L750.36-23.56L750.72-16.60L750.72 0L747.68 0L747.68-26.40L752.60-26.40L758.40-10.36L760.40-3.76L760.48-3.76L762.52-10.32L768.28-26.40L773.20-26.40Z M811.48 0L808.68-7.32L796.72-7.32L793.92 0L790.56 0L800.84-26.40L804.64-26.40L814.88 0L811.48 0ZM797.88-10.32L807.52-10.32L803.96-19.68L802.72-23.36L802.64-23.36L801.48-19.80L797.88-10.32Z M840.76-26.40Q847-26.40 850.52-22.96Q854.04-19.52 854.04-13.20L854.04-13.20Q854.04-6.88 850.52-3.44Q847 0 840.76 0L840.76 0L832.24 0L832.24-26.40L840.76-26.40ZM841.08-3Q845.60-3 848.14-5.70Q850.68-8.40 850.68-13.20L850.68-13.20Q850.68-18 848.14-20.70Q845.60-23.40 841.08-23.40L841.08-23.40L835.44-23.40L835.44-3L841.08-3Z M876.28-3L892.20-3L892.20 0L873.08 0L873.08-26.40L891.60-26.40L891.60-23.40L876.28-23.40L876.28-14.88L888.20-14.88L888.20-11.88L876.28-11.88L876.28-3Z M939.44-3L955.36-3L955.36 0L936.24 0L936.24-26.40L954.76-26.40L954.76-23.40L939.44-23.40L939.44-14.88L951.36-14.88L951.36-11.88L939.44-11.88L939.44-3Z M991.40 0L988.60-7.32L976.64-7.32L973.84 0L970.48 0L980.76-26.40L984.56-26.40L994.80 0L991.40 0ZM977.80-10.32L987.44-10.32L983.88-19.68L982.64-23.36L982.56-23.36L981.40-19.80L977.80-10.32Z M1020.32-26.80Q1027.40-26.80 1030.52-21.20L1030.52-21.20L1027.76-18.96Q1026.56-21.60 1024.90-22.70Q1023.24-23.80 1020.36-23.80L1020.36-23.80Q1017.32-23.80 1015.58-22.54Q1013.84-21.28 1013.84-19.32L1013.84-19.32Q1013.84-18.04 1014.52-17.20Q1015.20-16.36 1016.78-15.74Q1018.36-15.12 1021.16-14.64L1021.16-14.64Q1026.40-13.76 1028.58-12Q1030.76-10.24 1030.76-7.12L1030.76-7.12Q1030.76-4.88 1029.50-3.18Q1028.24-1.48 1025.92-0.54Q1023.60 0.40 1020.56 0.40L1020.56 0.40Q1016.56 0.40 1013.74-1.16Q1010.92-2.72 1009.44-5.32L1009.44-5.32L1012.20-7.56Q1013.28-5.20 1015.38-3.90Q1017.48-2.60 1020.64-2.60L1020.64-2.60Q1023.76-2.60 1025.60-3.74Q1027.44-4.88 1027.44-6.96L1027.44-6.96Q1027.44-8.72 1025.84-9.76Q1024.24-10.80 1020.16-11.52L1020.16-11.52Q1014.88-12.44 1012.68-14.16Q1010.48-15.88 1010.48-18.96L1010.48-18.96Q1010.48-21.08 1011.68-22.88Q1012.88-24.68 1015.12-25.74Q1017.36-26.80 1020.32-26.80L1020.32-26.80Z M1067.00-26.40L1057.56-10.32L1057.56 0L1054.36 0L1054.36-10.32L1044.92-26.40L1048.72-26.40L1055.96-13.60L1063.20-26.40L1067.00-26.40Z M1079.32-4.80Q1080.48-4.80 1081.20-4.08Q1081.92-3.36 1081.92-2.20L1081.92-2.20Q1081.92-1.04 1081.20-0.32Q1080.48 0.40 1079.32 0.40L1079.32 0.40Q1078.16 0.40 1077.44-0.32Q1076.72-1.04 1076.72-2.20L1076.72-2.20Q1076.72-3.36 1077.44-4.08Q1078.16-4.80 1079.32-4.80L1079.32-4.80Z"/></g>
</svg>
</g><g opacity="1" transform="rotate(0 245.2888 363.6385)">
<svg width="499.6534" height="22" x="245.2888" y="363.6385" version="1.1" preserveAspectRatio="none" viewBox="4.8 -28.48 657.72 28.96">
  <g transform="matrix(1 0 0 1 0 0)" class="companyName"><path id="id-D6z1nYkh16" d="M20.36-3.96L7.52-28L4.80-28L4.80 0L6.56 0L6.56-22.84L6.72-22.84L19.08 0.48L19.80 0.48L32.44-22.68L32.60-22.68L32.60 0L36.24 0L36.24-28L33.48-28L20.52-3.96L20.36-3.96Z M62.36-28L58.24-28L67.92-10.60L67.92 0L71.56 0L71.56-10.96L81.40-28L79.24-28L70.68-13.24L70.52-13.24L62.36-28Z M137.04 0L137.04-13.92L153.80-13.92L153.80 0L157.44 0L157.44-28L153.80-28L153.80-15.76L137.04-15.76L137.04-28L133.40-28L133.40 0L137.04 0Z M180.24-14L180.24-14Q180.24-11.76 181.10-9.22Q181.96-6.68 183.80-4.52Q185.64-2.36 188.48-0.94Q191.32 0.48 195.28 0.48L195.28 0.48Q197.96 0.48 200.14-0.18Q202.32-0.84 204.06-1.96Q205.80-3.08 207.08-4.54Q208.36-6 209.18-7.62Q210-9.24 210.42-10.88Q210.84-12.52 210.84-14L210.84-14Q210.84-16.24 209.92-18.78Q209-21.32 207.08-23.48Q205.16-25.64 202.22-27.06Q199.28-28.48 195.28-28.48L195.28-28.48Q191.32-28.48 188.48-27.08Q185.64-25.68 183.80-23.54Q181.96-21.40 181.10-18.84Q180.24-16.28 180.24-14ZM184.16-14L184.16-14Q184.16-16.80 185.02-19.14Q185.88-21.48 187.38-23.16Q188.88-24.84 190.92-25.78Q192.96-26.72 195.36-26.72L195.36-26.72Q197.72-26.72 199.82-25.78Q201.92-24.84 203.50-23.16Q205.08-21.48 206-19.14Q206.92-16.80 206.92-14L206.92-14Q206.92-11.20 206-8.86Q205.08-6.52 203.50-4.84Q201.92-3.16 199.82-2.22Q197.72-1.28 195.36-1.28L195.36-1.28Q192.96-1.28 190.92-2.22Q188.88-3.16 187.38-4.84Q185.88-6.52 185.02-8.86Q184.16-11.20 184.16-14Z M249.20-3.96L236.36-28L233.64-28L233.64 0L235.40 0L235.40-22.84L235.56-22.84L247.92 0.48L248.64 0.48L261.28-22.68L261.44-22.68L261.44 0L265.08 0L265.08-28L262.32-28L249.36-3.96L249.20-3.96Z M308.76-28L290.68-28L290.68 0L308.76 0L308.76-2.20L294.32-2.20L294.32-13.92L306.72-13.92L306.72-15.76L294.32-15.76L294.32-25.80L308.76-25.80L308.76-28Z M369.84-28L360.76-28L360.76 0L364.40 0L364.40-12.36L366.16-12.36Q367.28-12.36 368.02-12.16Q368.76-11.96 369.36-11.48Q369.96-11 370.48-10.24Q371-9.48 371.72-8.36L371.72-8.36L374.88-3.68Q375.48-2.76 376.06-2Q376.64-1.24 377.32-0.70Q378-0.16 378.86 0.16Q379.72 0.48 380.92 0.48L380.92 0.48Q381.80 0.48 382.36 0.40Q382.92 0.32 383.48 0L383.48 0L383.48-1.48Q383.28-1.44 383.08-1.42Q382.88-1.40 382.68-1.40L382.68-1.40Q381.84-1.40 381.20-1.64Q380.56-1.88 380-2.34Q379.44-2.80 378.92-3.46Q378.40-4.12 377.84-4.96L377.84-4.96Q376.16-7.40 375.24-8.86Q374.32-10.32 373.78-11.12Q373.24-11.92 372.90-12.28Q372.56-12.64 372.08-12.88L372.08-12.88L371.68-13.08L371.68-13.24Q373.60-13.36 374.98-14.08Q376.36-14.80 377.24-15.88Q378.12-16.96 378.52-18.22Q378.92-19.48 378.92-20.68L378.92-20.68Q378.92-21.76 378.50-23.04Q378.08-24.32 377.06-25.42Q376.04-26.52 374.28-27.26Q372.52-28 369.84-28L369.84-28ZM364.40-14.16L364.40-26.24L368.44-26.24Q369.96-26.24 371.18-25.80Q372.40-25.36 373.28-24.58Q374.16-23.80 374.62-22.72Q375.08-21.64 375.08-20.36L375.08-20.36Q375.08-19.28 374.66-18.18Q374.24-17.08 373.40-16.18Q372.56-15.28 371.34-14.72Q370.12-14.16 368.52-14.16L368.52-14.16L364.40-14.16Z M423.56-28L405.48-28L405.48 0L423.56 0L423.56-2.20L409.12-2.20L409.12-13.92L421.52-13.92L421.52-15.76L409.12-15.76L409.12-25.80L423.56-25.80L423.56-28Z M470.32-4.08L469.12-5.16Q465.04-1.32 459.44-1.32L459.44-1.32Q456.32-1.32 453.92-2.40Q451.52-3.48 449.92-5.28Q448.32-7.08 447.50-9.44Q446.68-11.80 446.68-14.36L446.68-14.36Q446.68-17.08 447.54-19.34Q448.40-21.60 449.96-23.24Q451.52-24.88 453.66-25.80Q455.80-26.72 458.32-26.72L458.32-26.72Q460.04-26.72 461.46-26.32Q462.88-25.92 463.98-25.28Q465.08-24.64 465.78-23.82Q466.48-23 466.76-22.16L466.76-22.16L469.72-22.16Q469.12-23.52 468.18-24.68Q467.24-25.84 465.84-26.68Q464.44-27.52 462.56-28Q460.68-28.48 458.28-28.48L458.28-28.48Q454.80-28.48 451.94-27.48Q449.08-26.48 447.04-24.62Q445.00-22.76 443.88-20.14Q442.76-17.52 442.76-14.28L442.76-14.28Q442.76-11.48 443.66-8.82Q444.56-6.16 446.44-4.10Q448.32-2.04 451.24-0.78Q454.16 0.48 458.20 0.48L458.20 0.48Q460.76 0.48 462.78 0Q464.80-0.48 466.30-1.18Q467.80-1.88 468.80-2.68Q469.80-3.48 470.32-4.08L470.32-4.08Z M510.00-28L491.92-28L491.92 0L510.00 0L510.00-2.20L495.56-2.20L495.56-13.92L507.96-13.92L507.96-15.76L495.56-15.76L495.56-25.80L510.00-25.80L510.00-28Z M535.64 0L535.64-11.68Q536.68-11.40 537.88-11.22Q539.08-11.04 540.52-11.04L540.52-11.04Q542.96-11.04 544.84-11.72Q546.72-12.40 547.98-13.58Q549.24-14.76 549.88-16.30Q550.52-17.84 550.52-19.60L550.52-19.60Q550.52-21.28 549.96-22.82Q549.40-24.36 548.26-25.50Q547.12-26.64 545.40-27.32Q543.68-28 541.36-28L541.36-28L532.00-28L532.00 0L535.64 0ZM535.64-13.32L535.64-26.24L539.84-26.24Q541.52-26.24 542.80-25.64Q544.08-25.04 544.92-24.06Q545.76-23.08 546.18-21.86Q546.60-20.64 546.60-19.44L546.60-19.44Q546.60-18.28 546.22-17.10Q545.84-15.92 545.00-14.96Q544.16-14 542.88-13.40Q541.60-12.80 539.80-12.80L539.80-12.80Q538.56-12.80 537.52-12.90Q536.48-13 535.64-13.32L535.64-13.32Z M577.76-28L574.12-28L574.12 0L577.76 0L577.76-28Z M623.04-28L604.96-28L604.96 0L623.04 0L623.04-2.20L608.60-2.20L608.60-13.92L621-13.92L621-15.76L608.60-15.76L608.60-25.80L623.04-25.80L623.04-28Z M644.44-7.08L641.72-7.08Q641.80-5.36 642.62-3.96Q643.44-2.56 644.86-1.58Q646.28-0.60 648.20-0.06Q650.12 0.48 652.40 0.48L652.40 0.48Q654.72 0.48 656.58-0.08Q658.44-0.64 659.76-1.68Q661.08-2.72 661.80-4.20Q662.52-5.68 662.52-7.48L662.52-7.48Q662.52-9.96 661.28-11.54Q660.04-13.12 658.18-14.18Q656.32-15.24 654.14-15.96Q651.96-16.68 650.10-17.48Q648.24-18.28 647-19.32Q645.76-20.36 645.76-22.08L645.76-22.08Q645.76-23.04 646.18-23.88Q646.60-24.72 647.42-25.34Q648.24-25.96 649.44-26.34Q650.64-26.72 652.20-26.72L652.20-26.72Q654.80-26.72 656.62-25.62Q658.44-24.52 658.76-22.16L658.76-22.16L661.48-22.16Q661.24-23.64 660.40-24.82Q659.56-26 658.28-26.82Q657-27.64 655.38-28.06Q653.76-28.48 652-28.48L652-28.48Q650.16-28.48 648.50-28Q646.84-27.52 645.58-26.60Q644.32-25.68 643.58-24.28Q642.84-22.88 642.84-21.08L642.84-21.08Q642.84-18.72 644.04-17.28Q645.24-15.84 647.06-14.88Q648.88-13.92 651-13.24Q653.12-12.56 654.94-11.70Q656.76-10.84 657.96-9.60Q659.16-8.36 659.16-6.28L659.16-6.28Q659.16-3.68 657.26-2.48Q655.36-1.28 652.20-1.28L652.20-1.28Q649.68-1.28 648.16-1.94Q646.64-2.60 645.84-3.52Q645.04-4.44 644.76-5.42Q644.48-6.40 644.44-7.08L644.44-7.08Z"/></g>
</svg>
</g><g opacity="1" transform="rotate(0 445.1155 133.3876)">
<svg width="100" height="170.2509" x="445.1155" y="133.3876" version="1.1" preserveAspectRatio="none" viewBox="22.100000381469727 2.5 55.80000305175781 95">
  <g transform="matrix(1 0 0 1 0 0)" class="companyName"><switch><g><path d="M22.1,2.5v95h55.8v-95H22.1z M57.7,31.4c-0.8,4.5-3.3,8-6.5,8.7c0.1,0.8,0.1,1.6,0.2,2.5c0.1,1.8,0.2,3.7,0.3,5.7    c0.1,2,0.2,4,0.3,6.1c0.1,2.1,0.2,4.2,0.3,6.3c0.1,2.1,0.2,4.2,0.4,6.3c0.1,1,0.1,2.1,0.2,3.1c0.1,1,0.1,2,0.1,3    c0,2-0.1,3.9-0.2,5.7c-0.1,0.9-0.1,1.8-0.2,2.6c-0.1,0.9-0.2,1.7-0.3,2.5c-0.4,3.2-0.9,5.8-1.3,7.6c-0.2,0.9-0.4,1.6-0.5,2.1    c-0.1,0.2-0.1,0.4-0.1,0.5c0,0.2-0.2,0.3-0.4,0.3s-0.3-0.1-0.4-0.3c0-0.1-0.1-0.3-0.1-0.5c-0.1-0.5-0.3-1.2-0.5-2.1    c-0.4-1.8-0.9-4.5-1.3-7.6c-0.1-0.8-0.2-1.6-0.3-2.5c-0.1-0.9-0.2-1.7-0.2-2.6C47.1,76.9,47,75,47,73c0-1,0-2,0.1-3    c0.1-1,0.1-2,0.2-3.1c0.2-2.1,0.3-4.2,0.4-6.3c0.1-2.1,0.2-4.2,0.3-6.3c0.1-2.1,0.2-4.1,0.3-6.1c0.1-2,0.2-3.9,0.3-5.7    c0.1-0.8,0.1-1.7,0.2-2.5c-3.2-0.7-5.8-4.3-6.5-9c0,0,0-0.1,0-0.2l1.5-25.2c0-0.2,0.3-0.2,0.3,0l1.5,22.9c0,0.7,1.1,0.7,1.1,0    L48,5.8c0-0.2,0.3-0.2,0.3,0l1.3,24c0,0.5,0.8,0.5,0.8,0l1.3-24c0-0.2,0.3-0.2,0.3,0l1.3,22.9c0,0.7,1.1,0.7,1.1,0l1.5-22.9    c0-0.2,0.3-0.2,0.3,0l1.5,25.1C57.7,31,57.7,31.2,57.7,31.4z"></path></g></switch></g>
</svg>
</g></svg></svg>