<svg version="1.1" preserveAspectRatio="none" xmlns="http://www.w3.org/2000/svg" width="500" height="500" viewBox="0 0 500 500"><rect width="100%" height="100%" fill="#F3F3F3" fill-opacity="1"/><svg viewBox="-5.8332 71.6837 385.4143 208.6564" width="333" height="180.2802366181016" x="83.5px" y="159.8599px" xmlns="http://www.w3.org/2000/svg" xmlns:xlink="http://www.w3.org/1999/xlink" preserveAspectRatio="none"><defs></defs><style>.companyName {fill:#333258;fill-opacity:1;}.icon1 {fill:#333258;fill-opacity:1;}.icon2 {fill:#F36958;fill-opacity:1;}.icon3 {fill:#8C94CC;fill-opacity:1;}.icon3-str {stroke:#8C94CC;stroke-opacity:1;}.text {fill:#333258;fill-opacity:1;}</style><g opacity="1" transform="rotate(0 36.2391 264.3401)">
<svg width="301.2696" height="16" x="36.2391" y="264.3401" version="1.1" preserveAspectRatio="none" viewBox="4.2 -30.28 720.8 38.28">
  <g transform="matrix(1 0 0 1 0 0)" class="text"><path id="id-6izo4zJp30" d="M23.96-24.52L8.20-24.52L8.20-14.76L22.24-14.76L22.24-11.32L8.20-11.32L8.20 0L4.20 0L4.20-28L23.96-28L23.96-24.52Z M33.04 0L33.04-29.68L36.88-29.68L36.88 0L33.04 0Z M55.92-21.40Q60.32-21.40 62.66-19.24Q65-17.08 65-12.80L65-12.80L65 0L61.36 0L61.36-2.80Q60.40-1.32 58.62-0.54Q56.84 0.24 54.40 0.24L54.40 0.24Q50.84 0.24 48.70-1.48Q46.56-3.20 46.56-6L46.56-6Q46.56-8.80 48.60-10.50Q50.64-12.20 55.08-12.20L55.08-12.20L61.16-12.20L61.16-12.96Q61.16-15.44 59.72-16.76Q58.28-18.08 55.48-18.08L55.48-18.08Q53.60-18.08 51.80-17.46Q50-16.84 48.76-15.80L48.76-15.80L47.16-18.68Q48.80-20 51.08-20.70Q53.36-21.40 55.92-21.40L55.92-21.40ZM55.04-2.72Q57.24-2.72 58.84-3.70Q60.44-4.68 61.16-6.48L61.16-6.48L61.16-9.44L55.24-9.44Q50.36-9.44 50.36-6.16L50.36-6.16Q50.36-4.56 51.60-3.64Q52.84-2.72 55.04-2.72L55.04-2.72Z M90.72-21.20L94.48-21.20L85.20 0L81.28 0L72-21.20L76-21.20L83.28-4.20L90.72-21.20Z M110.56 0.24Q107.40 0.24 104.88-1.16Q102.36-2.56 100.94-5.02Q99.52-7.48 99.52-10.60L99.52-10.60Q99.52-13.72 100.94-16.18Q102.36-18.64 104.88-20.02Q107.40-21.40 110.56-21.40L110.56-21.40Q113.72-21.40 116.22-20.02Q118.72-18.64 120.14-16.18Q121.56-13.72 121.56-10.60L121.56-10.60Q121.56-7.48 120.14-5.02Q118.72-2.56 116.22-1.16Q113.72 0.24 110.56 0.24L110.56 0.24ZM110.56-3.12Q112.60-3.12 114.22-4.06Q115.84-5 116.76-6.70Q117.68-8.40 117.68-10.60L117.68-10.60Q117.68-12.80 116.76-14.50Q115.84-16.20 114.22-17.12Q112.60-18.04 110.56-18.04L110.56-18.04Q108.52-18.04 106.90-17.12Q105.28-16.20 104.34-14.50Q103.40-12.80 103.40-10.60L103.40-10.60Q103.40-8.40 104.34-6.70Q105.28-5 106.90-4.06Q108.52-3.12 110.56-3.12L110.56-3.12Z M134.56-17.64Q135.56-19.48 137.52-20.44Q139.48-21.40 142.28-21.40L142.28-21.40L142.28-17.68Q141.96-17.72 141.40-17.72L141.40-17.72Q138.28-17.72 136.50-15.86Q134.72-14 134.72-10.56L134.72-10.56L134.72 0L130.88 0L130.88-21.20L134.56-21.20L134.56-17.64Z M159.04-26.76Q155.60-26.76 155.60-23.04L155.60-23.04L155.60-21.20L161.76-21.20L161.76-18.04L155.68-18.04L155.68 0L151.84 0L151.84-18.04L148.24-18.04L148.24-21.20L151.84-21.20L151.84-23.08Q151.84-26.24 153.68-28.08Q155.52-29.92 158.84-29.92L158.84-29.92Q160.12-29.92 161.24-29.60Q162.36-29.28 163.16-28.68L163.16-28.68L162-25.76Q160.68-26.76 159.04-26.76L159.04-26.76Z M185.32-21.20L189.16-21.20L189.16 0L185.52 0L185.52-3.20Q184.36-1.56 182.46-0.66Q180.56 0.24 178.32 0.24L178.32 0.24Q174.08 0.24 171.64-2.10Q169.20-4.44 169.20-9L169.20-9L169.20-21.20L173.04-21.20L173.04-9.44Q173.04-6.36 174.52-4.78Q176.00-3.20 178.76-3.20L178.76-3.20Q181.80-3.20 183.56-5.04Q185.32-6.88 185.32-10.24L185.32-10.24L185.32-21.20Z M200.48 0L200.48-29.68L204.32-29.68L204.32 0L200.48 0Z M239.64 0.24Q236.40 0.24 233.86-1.16Q231.32-2.56 229.88-5.02Q228.44-7.48 228.44-10.60L228.44-10.60Q228.44-13.72 229.88-16.18Q231.32-18.64 233.86-20.02Q236.40-21.40 239.64-21.40L239.64-21.40Q242.52-21.40 244.78-20.24Q247.04-19.08 248.28-16.88L248.28-16.88L245.36-15Q244.36-16.52 242.88-17.28Q241.40-18.04 239.60-18.04L239.60-18.04Q237.52-18.04 235.86-17.12Q234.20-16.20 233.26-14.50Q232.32-12.80 232.32-10.60L232.32-10.60Q232.32-8.36 233.26-6.66Q234.20-4.96 235.86-4.04Q237.52-3.12 239.60-3.12L239.60-3.12Q241.40-3.12 242.88-3.88Q244.36-4.64 245.36-6.16L245.36-6.16L248.28-4.32Q247.04-2.12 244.78-0.94Q242.52 0.24 239.64 0.24L239.64 0.24Z M260.92-17.64Q261.92-19.48 263.88-20.44Q265.84-21.40 268.64-21.40L268.64-21.40L268.64-17.68Q268.32-17.72 267.76-17.72L267.76-17.72Q264.64-17.72 262.86-15.86Q261.08-14 261.08-10.56L261.08-10.56L261.08 0L257.24 0L257.24-21.20L260.92-21.20L260.92-17.64Z M296.32-10.48Q296.32-10.04 296.24-9.32L296.24-9.32L279.04-9.32Q279.40-6.52 281.50-4.82Q283.60-3.12 286.72-3.12L286.72-3.12Q290.52-3.12 292.84-5.68L292.84-5.68L294.96-3.20Q293.52-1.52 291.38-0.64Q289.24 0.24 286.60 0.24L286.60 0.24Q283.24 0.24 280.64-1.14Q278.04-2.52 276.62-5Q275.20-7.48 275.20-10.60L275.20-10.60Q275.20-13.68 276.58-16.16Q277.96-18.64 280.38-20.02Q282.80-21.40 285.84-21.40L285.84-21.40Q288.88-21.40 291.26-20.02Q293.64-18.64 294.98-16.16Q296.32-13.68 296.32-10.48L296.32-10.48ZM285.84-18.16Q283.08-18.16 281.22-16.48Q279.36-14.80 279.04-12.08L279.04-12.08L292.64-12.08Q292.32-14.76 290.46-16.46Q288.60-18.16 285.84-18.16L285.84-18.16Z M312.76-21.40Q317.16-21.40 319.50-19.24Q321.84-17.08 321.84-12.80L321.84-12.80L321.84 0L318.20 0L318.20-2.80Q317.24-1.32 315.46-0.54Q313.68 0.24 311.24 0.24L311.24 0.24Q307.68 0.24 305.54-1.48Q303.40-3.20 303.40-6L303.40-6Q303.40-8.80 305.44-10.50Q307.48-12.20 311.92-12.20L311.92-12.20L318-12.20L318-12.96Q318-15.44 316.56-16.76Q315.12-18.08 312.32-18.08L312.32-18.08Q310.44-18.08 308.64-17.46Q306.84-16.84 305.60-15.80L305.60-15.80L304-18.68Q305.64-20 307.92-20.70Q310.20-21.40 312.76-21.40L312.76-21.40ZM311.88-2.72Q314.08-2.72 315.68-3.70Q317.28-4.68 318-6.48L318-6.48L318-9.44L312.08-9.44Q307.20-9.44 307.20-6.16L307.20-6.16Q307.20-4.56 308.44-3.64Q309.68-2.72 311.88-2.72L311.88-2.72Z M343.68-4L344.88-1.24Q344.04-0.52 342.80-0.14Q341.56 0.24 340.24 0.24L340.24 0.24Q337.04 0.24 335.28-1.48Q333.52-3.20 333.52-6.40L333.52-6.40L333.52-18.04L329.92-18.04L329.92-21.20L333.52-21.20L333.52-25.84L337.36-25.84L337.36-21.20L343.44-21.20L343.44-18.04L337.36-18.04L337.36-6.56Q337.36-4.84 338.22-3.92Q339.08-3 340.68-3L340.68-3Q342.44-3 343.68-4L343.68-4Z M353.52 0L353.52-21.20L357.36-21.20L357.36 0L353.52 0ZM355.44-25.28Q354.32-25.28 353.58-26Q352.84-26.72 352.84-27.76L352.84-27.76Q352.84-28.80 353.58-29.54Q354.32-30.28 355.44-30.28L355.44-30.28Q356.56-30.28 357.30-29.58Q358.04-28.88 358.04-27.84L358.04-27.84Q358.04-26.76 357.30-26.02Q356.56-25.28 355.44-25.28L355.44-25.28Z M377.76 0.24Q374.60 0.24 372.08-1.16Q369.56-2.56 368.14-5.02Q366.72-7.48 366.72-10.60L366.72-10.60Q366.72-13.72 368.14-16.18Q369.56-18.64 372.08-20.02Q374.60-21.40 377.76-21.40L377.76-21.40Q380.92-21.40 383.42-20.02Q385.92-18.64 387.34-16.18Q388.76-13.72 388.76-10.60L388.76-10.60Q388.76-7.48 387.34-5.02Q385.92-2.56 383.42-1.16Q380.92 0.24 377.76 0.24L377.76 0.24ZM377.76-3.12Q379.80-3.12 381.42-4.06Q383.04-5 383.96-6.70Q384.88-8.40 384.88-10.60L384.88-10.60Q384.88-12.80 383.96-14.50Q383.04-16.20 381.42-17.12Q379.80-18.04 377.76-18.04L377.76-18.04Q375.72-18.04 374.10-17.12Q372.48-16.20 371.54-14.50Q370.60-12.80 370.60-10.60L370.60-10.60Q370.60-8.40 371.54-6.70Q372.48-5 374.10-4.06Q375.72-3.12 377.76-3.12L377.76-3.12Z M409.40-21.40Q413.44-21.40 415.82-19.06Q418.20-16.72 418.20-12.20L418.20-12.20L418.20 0L414.36 0L414.36-11.76Q414.36-14.84 412.88-16.40Q411.40-17.96 408.64-17.96L408.64-17.96Q405.52-17.96 403.72-16.14Q401.92-14.32 401.92-10.92L401.92-10.92L401.92 0L398.08 0L398.08-21.20L401.76-21.20L401.76-18Q402.92-19.64 404.90-20.52Q406.88-21.40 409.40-21.40L409.40-21.40Z M435.40 0.24Q432.80 0.24 430.40-0.46Q428-1.16 426.64-2.24L426.64-2.24L428.24-5.28Q429.64-4.28 431.64-3.68Q433.64-3.08 435.68-3.08L435.68-3.08Q440.72-3.08 440.72-5.96L440.72-5.96Q440.72-6.92 440.04-7.48Q439.36-8.04 438.34-8.30Q437.32-8.56 435.44-8.88L435.44-8.88Q432.88-9.28 431.26-9.80Q429.64-10.32 428.48-11.56Q427.32-12.80 427.32-15.04L427.32-15.04Q427.32-17.92 429.72-19.66Q432.12-21.40 436.16-21.40L436.16-21.40Q438.28-21.40 440.40-20.88Q442.52-20.36 443.88-19.48L443.88-19.48L442.24-16.44Q439.64-18.12 436.12-18.12L436.12-18.12Q433.68-18.12 432.40-17.32Q431.12-16.52 431.12-15.20L431.12-15.20Q431.12-14.16 431.84-13.56Q432.56-12.96 433.62-12.68Q434.68-12.40 436.60-12.04L436.60-12.04Q439.16-11.60 440.74-11.10Q442.32-10.60 443.44-9.40Q444.56-8.20 444.56-6.04L444.56-6.04Q444.56-3.16 442.10-1.46Q439.64 0.24 435.40 0.24L435.40 0.24Z M494.64-21.40Q498.64-21.40 500.98-19.08Q503.32-16.76 503.32-12.20L503.32-12.20L503.32 0L499.48 0L499.48-11.76Q499.48-14.84 498.06-16.40Q496.64-17.96 494-17.96L494-17.96Q491.08-17.96 489.36-16.14Q487.64-14.32 487.64-10.92L487.64-10.92L487.64 0L483.80 0L483.80-11.76Q483.80-14.84 482.38-16.40Q480.96-17.96 478.32-17.96L478.32-17.96Q475.40-17.96 473.68-16.14Q471.96-14.32 471.96-10.92L471.96-10.92L471.96 0L468.12 0L468.12-21.20L471.80-21.20L471.80-18.04Q472.96-19.68 474.84-20.54Q476.72-21.40 479.12-21.40L479.12-21.40Q481.60-21.40 483.52-20.40Q485.44-19.40 486.48-17.48L486.48-17.48Q487.68-19.32 489.82-20.36Q491.96-21.40 494.64-21.40L494.64-21.40Z M522.12-21.40Q526.52-21.40 528.86-19.24Q531.20-17.08 531.20-12.80L531.20-12.80L531.20 0L527.56 0L527.56-2.80Q526.60-1.32 524.82-0.54Q523.04 0.24 520.60 0.24L520.60 0.24Q517.04 0.24 514.90-1.48Q512.76-3.20 512.76-6L512.76-6Q512.76-8.80 514.80-10.50Q516.84-12.20 521.28-12.20L521.28-12.20L527.36-12.20L527.36-12.96Q527.36-15.44 525.92-16.76Q524.48-18.08 521.68-18.08L521.68-18.08Q519.80-18.08 518-17.46Q516.20-16.84 514.96-15.80L514.96-15.80L513.36-18.68Q515-20 517.28-20.70Q519.56-21.40 522.12-21.40L522.12-21.40ZM521.24-2.72Q523.44-2.72 525.04-3.70Q526.64-4.68 527.36-6.48L527.36-6.48L527.36-9.44L521.44-9.44Q516.56-9.44 516.56-6.16L516.56-6.16Q516.56-4.56 517.80-3.64Q519.04-2.72 521.24-2.72L521.24-2.72Z M558.60-29.68L562.44-29.68L562.44 0L558.76 0L558.76-3.36Q557.48-1.60 555.52-0.68Q553.56 0.24 551.20 0.24L551.20 0.24Q548.12 0.24 545.68-1.12Q543.24-2.48 541.86-4.94Q540.48-7.40 540.48-10.60L540.48-10.60Q540.48-13.80 541.86-16.24Q543.24-18.68 545.68-20.04Q548.12-21.40 551.20-21.40L551.20-21.40Q553.48-21.40 555.40-20.54Q557.32-19.68 558.60-18L558.60-18L558.60-29.68ZM551.52-3.12Q553.52-3.12 555.16-4.06Q556.80-5 557.72-6.70Q558.64-8.40 558.64-10.60L558.64-10.60Q558.64-12.80 557.72-14.50Q556.80-16.20 555.16-17.12Q553.52-18.04 551.52-18.04L551.52-18.04Q549.48-18.04 547.86-17.12Q546.24-16.20 545.30-14.50Q544.36-12.80 544.36-10.60L544.36-10.60Q544.36-8.40 545.30-6.70Q546.24-5 547.86-4.06Q549.48-3.12 551.52-3.12L551.52-3.12Z M592.88-10.48Q592.88-10.04 592.80-9.32L592.80-9.32L575.60-9.32Q575.96-6.52 578.06-4.82Q580.16-3.12 583.28-3.12L583.28-3.12Q587.08-3.12 589.40-5.68L589.40-5.68L591.52-3.20Q590.08-1.52 587.94-0.64Q585.80 0.24 583.16 0.24L583.16 0.24Q579.80 0.24 577.20-1.14Q574.60-2.52 573.18-5Q571.76-7.48 571.76-10.60L571.76-10.60Q571.76-13.68 573.14-16.16Q574.52-18.64 576.94-20.02Q579.36-21.40 582.40-21.40L582.40-21.40Q585.44-21.40 587.82-20.02Q590.20-18.64 591.54-16.16Q592.88-13.68 592.88-10.48L592.88-10.48ZM582.40-18.16Q579.64-18.16 577.78-16.48Q575.92-14.80 575.60-12.08L575.60-12.08L589.20-12.08Q588.88-14.76 587.02-16.46Q585.16-18.16 582.40-18.16L582.40-18.16Z M636.12-10.48Q636.12-10.04 636.04-9.32L636.04-9.32L618.84-9.32Q619.20-6.52 621.30-4.82Q623.40-3.12 626.52-3.12L626.52-3.12Q630.32-3.12 632.64-5.68L632.64-5.68L634.76-3.20Q633.32-1.52 631.18-0.64Q629.04 0.24 626.40 0.24L626.40 0.24Q623.04 0.24 620.44-1.14Q617.84-2.52 616.42-5Q615.00-7.48 615.00-10.60L615.00-10.60Q615.00-13.68 616.38-16.16Q617.76-18.64 620.18-20.02Q622.60-21.40 625.64-21.40L625.64-21.40Q628.68-21.40 631.06-20.02Q633.44-18.64 634.78-16.16Q636.12-13.68 636.12-10.48L636.12-10.48ZM625.64-18.16Q622.88-18.16 621.02-16.48Q619.16-14.80 618.84-12.08L618.84-12.08L632.44-12.08Q632.12-14.76 630.26-16.46Q628.40-18.16 625.64-18.16L625.64-18.16Z M652.56-21.40Q656.96-21.40 659.30-19.24Q661.64-17.08 661.64-12.80L661.64-12.80L661.64 0L658.00 0L658.00-2.80Q657.04-1.32 655.26-0.54Q653.48 0.24 651.04 0.24L651.04 0.24Q647.48 0.24 645.34-1.48Q643.20-3.20 643.20-6L643.20-6Q643.20-8.80 645.24-10.50Q647.28-12.20 651.72-12.20L651.72-12.20L657.80-12.20L657.80-12.96Q657.80-15.44 656.36-16.76Q654.92-18.08 652.12-18.08L652.12-18.08Q650.24-18.08 648.44-17.46Q646.64-16.84 645.40-15.80L645.40-15.80L643.80-18.68Q645.44-20 647.72-20.70Q650.00-21.40 652.56-21.40L652.56-21.40ZM651.68-2.72Q653.88-2.72 655.48-3.70Q657.08-4.68 657.80-6.48L657.80-6.48L657.80-9.44L651.88-9.44Q647.00-9.44 647.00-6.16L647.00-6.16Q647.00-4.56 648.24-3.64Q649.48-2.72 651.68-2.72L651.68-2.72Z M678.84 0.24Q676.24 0.24 673.84-0.46Q671.44-1.16 670.08-2.24L670.08-2.24L671.68-5.28Q673.08-4.28 675.08-3.68Q677.08-3.08 679.12-3.08L679.12-3.08Q684.16-3.08 684.16-5.96L684.16-5.96Q684.16-6.92 683.48-7.48Q682.80-8.04 681.78-8.30Q680.76-8.56 678.88-8.88L678.88-8.88Q676.32-9.28 674.70-9.80Q673.08-10.32 671.92-11.56Q670.76-12.80 670.76-15.04L670.76-15.04Q670.76-17.92 673.16-19.66Q675.56-21.40 679.60-21.40L679.60-21.40Q681.72-21.40 683.84-20.88Q685.96-20.36 687.32-19.48L687.32-19.48L685.68-16.44Q683.08-18.12 679.56-18.12L679.56-18.12Q677.12-18.12 675.84-17.32Q674.56-16.52 674.56-15.20L674.56-15.20Q674.56-14.16 675.28-13.56Q676.00-12.96 677.06-12.68Q678.12-12.40 680.04-12.04L680.04-12.04Q682.60-11.60 684.18-11.10Q685.76-10.60 686.88-9.40Q688.00-8.20 688.00-6.04L688.00-6.04Q688.00-3.16 685.54-1.46Q683.08 0.24 678.84 0.24L678.84 0.24Z M711.40-21.20L715.16-21.20L704.88 2.12Q703.52 5.36 701.70 6.68Q699.88 8 697.32 8L697.32 8Q695.76 8 694.30 7.50Q692.84 7 691.88 6.04L691.88 6.04L693.52 3.16Q695.16 4.72 697.32 4.72L697.32 4.72Q698.72 4.72 699.66 3.98Q700.60 3.24 701.36 1.44L701.36 1.44L702.04-0.04L692.68-21.20L696.68-21.20L704.08-4.24L711.40-21.20Z M722.36 0.24Q721.24 0.24 720.44-0.54Q719.64-1.32 719.64-2.52L719.64-2.52Q719.64-3.68 720.44-4.46Q721.24-5.24 722.36-5.24L722.36-5.24Q723.48-5.24 724.24-4.48Q725.00-3.72 725.00-2.52L725.00-2.52Q725.00-1.32 724.22-0.54Q723.44 0.24 722.36 0.24L722.36 0.24Z"/></g>
</svg>
</g><g opacity="1" transform="rotate(0 -5.8332 210.3401)">
<svg width="385.4143" height="38" x="-5.8332" y="210.3401" version="1.1" preserveAspectRatio="none" viewBox="4 -31.24 413 40.72">
  <g transform="matrix(1 0 0 1 0 0)" class="companyName"><path id="id-D6z1nYkh16" d="M34.08-31.24Q34.60-31.24 34.92-30.90Q35.24-30.56 35.24-30.04L35.24-30.04L35.24-1.20Q35.24-0.68 34.92-0.34Q34.60 0 34.08 0L34.08 0Q33.56 0 33.20-0.34Q32.84-0.68 32.84-1.20L32.84-1.20L32.84-25.72L20.68-0.96Q20.40-0.40 19.64-0.40L19.64-0.40Q18.92-0.40 18.52-1.16L18.52-1.16L6.40-25.36L6.40-1.20Q6.40-0.68 6.06-0.34Q5.72 0 5.20 0L5.20 0Q4.68 0 4.34-0.34Q4-0.68 4-1.20L4-1.20L4-30.04Q4-30.56 4.34-30.90Q4.68-31.24 5.20-31.24L5.20-31.24Q6-31.24 6.28-30.64L6.28-30.64L19.72-4.08L33-30.64Q33.36-31.24 34.08-31.24L34.08-31.24Z M62.24-21.84Q63-21.52 63-20.92L63-20.92Q63-20.76 62.84-20.36L62.84-20.36L49.40 8.76Q49.04 9.48 48.48 9.48L48.48 9.48Q48.24 9.48 47.92 9.36L47.92 9.36Q47.16 9.04 47.16 8.44L47.16 8.44Q47.16 8.28 47.32 7.88L47.32 7.88L51.32-0.76Q51.28-0.80 51.16-1.04L51.16-1.04L42.40-20.24Q42.24-20.56 42.24-20.88L42.24-20.88Q42.24-21.48 42.92-21.80L42.92-21.80Q43.24-21.96 43.56-21.96L43.56-21.96Q44.16-21.96 44.48-21.28L44.48-21.28L52.60-3.52L60.76-21.24Q61.12-21.96 61.68-21.96L61.68-21.96Q61.96-21.96 62.24-21.84L62.24-21.84Z M105.72-30.04Q105.72-30.56 106.06-30.90Q106.40-31.24 106.92-31.24L106.92-31.24Q107.40-31.24 107.76-30.90Q108.12-30.56 108.12-30.04L108.12-30.04L108.12-1.20Q108.12-0.68 107.76-0.34Q107.40 0 106.92 0L106.92 0Q106.40 0 106.06-0.34Q105.72-0.68 105.72-1.20L105.72-1.20L105.72-14.68L85.52-14.68L85.52-1.20Q85.52-0.68 85.18-0.34Q84.84 0 84.32 0L84.32 0Q83.80 0 83.46-0.34Q83.12-0.68 83.12-1.20L83.12-1.20L83.12-30.04Q83.12-30.56 83.46-30.90Q83.80-31.24 84.32-31.24L84.32-31.24Q84.84-31.24 85.18-30.90Q85.52-30.56 85.52-30.04L85.52-30.04L85.52-16.84L105.72-16.84L105.72-30.04Z M127.72-22.12Q130.84-22.12 133.40-20.66Q135.96-19.20 137.42-16.64Q138.88-14.08 138.88-10.92L138.88-10.92Q138.88-7.80 137.42-5.24Q135.96-2.68 133.40-1.22Q130.84 0.24 127.72 0.24L127.72 0.24Q124.56 0.24 122-1.22Q119.44-2.68 117.98-5.24Q116.52-7.80 116.52-10.92L116.52-10.92Q116.52-14.08 117.98-16.64Q119.44-19.20 122-20.66Q124.56-22.12 127.72-22.12L127.72-22.12ZM127.72-19.88Q125.24-19.88 123.24-18.70Q121.24-17.52 120.08-15.48Q118.92-13.44 118.92-10.92L118.92-10.92Q118.92-8.40 120.08-6.36Q121.24-4.32 123.24-3.16Q125.24-2 127.72-2L127.72-2Q130.20-2 132.20-3.16Q134.20-4.32 135.34-6.36Q136.48-8.40 136.48-10.92L136.48-10.92Q136.48-13.44 135.34-15.48Q134.20-17.52 132.20-18.70Q130.20-19.88 127.72-19.88L127.72-19.88Z M169.96-22.16Q172.36-22.16 174.24-20.96Q176.12-19.76 177.16-17.62Q178.20-15.48 178.20-12.76L178.20-12.76L178.20-1.20Q178.20-0.68 177.88-0.34Q177.56 0 177 0L177 0Q176.48 0 176.14-0.34Q175.80-0.68 175.80-1.20L175.80-1.20L175.80-12.76Q175.80-15.84 174.16-17.80Q172.52-19.76 169.96-19.76L169.96-19.76Q167.16-19.76 165.44-17.92Q163.72-16.08 163.80-13.04L163.80-13.04L163.80-12.76L163.80-1.20Q163.80-0.68 163.48-0.34Q163.16 0 162.60 0L162.60 0Q162.08 0 161.74-0.34Q161.40-0.68 161.40-1.20L161.40-1.20L161.40-12.76Q161.40-15.84 159.76-17.80Q158.12-19.76 155.56-19.76L155.56-19.76Q152.80-19.76 151.04-18Q149.28-16.24 149.28-13.44L149.28-13.44L149.28-1.20Q149.28-0.68 148.96-0.34Q148.64 0 148.08 0L148.08 0Q147.56 0 147.22-0.34Q146.88-0.68 146.88-1.20L146.88-1.20L146.88-20.68Q146.88-21.24 147.22-21.56Q147.56-21.88 148.08-21.88L148.08-21.88Q148.64-21.88 148.96-21.56Q149.28-21.24 149.28-20.68L149.28-20.68L149.28-19.12Q150.40-20.56 152.04-21.36Q153.68-22.16 155.56-22.16L155.56-22.16Q157.88-22.16 159.72-21.02Q161.56-19.88 162.64-17.88L162.64-17.88Q163.72-19.88 165.64-21.02Q167.56-22.16 169.96-22.16L169.96-22.16Z M196.08-22.08Q199-22.08 201.30-20.70Q203.60-19.32 204.88-16.88Q206.16-14.44 206.16-11.32L206.16-11.32Q206.16-10.80 205.84-10.50Q205.52-10.20 205-10.20L205-10.20L188.24-10.20Q188.36-7.84 189.48-5.98Q190.60-4.12 192.48-3.08Q194.36-2.04 196.68-2.04L196.68-2.04Q198.24-2.04 199.82-2.58Q201.40-3.12 202.32-4L202.32-4Q202.72-4.32 203.16-4.32L203.16-4.32Q203.60-4.32 203.88-4.08L203.88-4.08Q204.32-3.72 204.32-3.24L204.32-3.24Q204.32-2.84 203.96-2.48L203.96-2.48Q202.68-1.32 200.62-0.56Q198.56 0.20 196.68 0.20L196.68 0.20Q193.52 0.20 191.06-1.22Q188.60-2.64 187.20-5.18Q185.80-7.72 185.80-10.92L185.80-10.92Q185.80-14.16 187.10-16.70Q188.40-19.24 190.74-20.66Q193.08-22.08 196.08-22.08L196.08-22.08ZM196.08-19.84Q192.96-19.84 190.82-17.76Q188.68-15.68 188.28-12.28L188.28-12.28L203.84-12.28Q203.56-15.68 201.44-17.76Q199.32-19.84 196.08-19.84L196.08-19.84Z M246.48-1.84Q246.80-1.28 246.80-0.92L246.80-0.92Q246.80-0.48 246.46-0.24Q246.12 0 245.48 0L245.48 0Q245.08 0 244.84-0.16Q244.60-0.32 244.40-0.64L244.40-0.64L237.04-12.40L236.32-12.40L229.88-12.40L229.88-1.20Q229.88-0.68 229.56-0.34Q229.24 0 228.68 0L228.68 0Q228.16 0 227.82-0.34Q227.48-0.68 227.48-1.20L227.48-1.20L227.48-30.04Q227.48-30.60 227.82-30.92Q228.16-31.24 228.68-31.24L228.68-31.24L236.32-31.24Q239.20-31.24 241.48-30.04Q243.76-28.84 245.04-26.68Q246.32-24.52 246.32-21.76L246.32-21.76Q246.32-18.48 244.50-16.10Q242.68-13.72 239.60-12.84L239.60-12.84L246.48-1.84ZM229.88-14.80L236.32-14.80Q238.52-14.80 240.24-15.68Q241.96-16.56 242.94-18.16Q243.92-19.76 243.92-21.76L243.92-21.76Q243.92-23.80 242.94-25.42Q241.96-27.04 240.24-27.94Q238.52-28.84 236.32-28.84L236.32-28.84L229.88-28.84L229.88-14.80Z M262.48-22.08Q265.40-22.08 267.70-20.70Q270-19.32 271.28-16.88Q272.56-14.44 272.56-11.32L272.56-11.32Q272.56-10.80 272.24-10.50Q271.92-10.20 271.40-10.20L271.40-10.20L254.64-10.20Q254.76-7.84 255.88-5.98Q257-4.12 258.88-3.08Q260.76-2.04 263.08-2.04L263.08-2.04Q264.64-2.04 266.22-2.58Q267.80-3.12 268.72-4L268.72-4Q269.12-4.32 269.56-4.32L269.56-4.32Q270-4.32 270.28-4.08L270.28-4.08Q270.72-3.72 270.72-3.24L270.72-3.24Q270.72-2.84 270.36-2.48L270.36-2.48Q269.08-1.32 267.02-0.56Q264.96 0.20 263.08 0.20L263.08 0.20Q259.92 0.20 257.46-1.22Q255.00-2.64 253.60-5.18Q252.20-7.72 252.20-10.92L252.20-10.92Q252.20-14.16 253.50-16.70Q254.80-19.24 257.14-20.66Q259.48-22.08 262.48-22.08L262.48-22.08ZM262.48-19.84Q259.36-19.84 257.22-17.76Q255.08-15.68 254.68-12.28L254.68-12.28L270.24-12.28Q269.96-15.68 267.84-17.76Q265.72-19.84 262.48-19.84L262.48-19.84Z M288.04-22.08Q290.60-22.08 292.72-21.08Q294.84-20.08 296.40-18.12L296.40-18.12Q296.68-17.72 296.68-17.44L296.68-17.44Q296.68-16.88 296.12-16.56L296.12-16.56Q295.84-16.32 295.48-16.32L295.48-16.32Q294.92-16.32 294.56-16.80L294.56-16.80Q292.00-19.84 288.04-19.84L288.04-19.84Q285.72-19.84 283.92-18.70Q282.12-17.56 281.14-15.52Q280.16-13.48 280.16-10.92L280.16-10.92Q280.16-8.40 281.24-6.36Q282.32-4.32 284.24-3.16Q286.16-2 288.64-2L288.64-2Q292.16-2 294.28-3.96L294.28-3.96Q294.64-4.32 295.12-4.32L295.12-4.32Q295.56-4.32 295.84-4.04L295.84-4.04Q296.24-3.68 296.24-3.16L296.24-3.16Q296.24-2.72 295.92-2.44L295.92-2.44Q294.52-1.16 292.64-0.46Q290.76 0.24 288.64 0.24L288.64 0.24Q285.56 0.24 283.08-1.22Q280.60-2.68 279.18-5.24Q277.76-7.80 277.76-10.92L277.76-10.92Q277.76-14.08 279.08-16.62Q280.40-19.16 282.76-20.62Q285.12-22.08 288.04-22.08L288.04-22.08Z M313.76-22.08Q316.68-22.08 318.98-20.70Q321.28-19.32 322.56-16.88Q323.84-14.44 323.84-11.32L323.84-11.32Q323.84-10.80 323.52-10.50Q323.20-10.20 322.68-10.20L322.68-10.20L305.92-10.20Q306.04-7.84 307.16-5.98Q308.28-4.12 310.16-3.08Q312.04-2.04 314.36-2.04L314.36-2.04Q315.92-2.04 317.50-2.58Q319.08-3.12 320.00-4L320.00-4Q320.40-4.32 320.84-4.32L320.84-4.32Q321.28-4.32 321.56-4.08L321.56-4.08Q322.00-3.72 322.00-3.24L322.00-3.24Q322.00-2.84 321.64-2.48L321.64-2.48Q320.36-1.32 318.30-0.56Q316.24 0.20 314.36 0.20L314.36 0.20Q311.20 0.20 308.74-1.22Q306.28-2.64 304.88-5.18Q303.48-7.72 303.48-10.92L303.48-10.92Q303.48-14.16 304.78-16.70Q306.08-19.24 308.42-20.66Q310.76-22.08 313.76-22.08L313.76-22.08ZM313.76-19.84Q310.64-19.84 308.50-17.76Q306.36-15.68 305.96-12.28L305.96-12.28L321.52-12.28Q321.24-15.68 319.12-17.76Q317.00-19.84 313.76-19.84L313.76-19.84Z M342.20-22.12Q345.36-22.12 347.92-20.66Q350.48-19.20 351.94-16.64Q353.40-14.08 353.40-10.92L353.40-10.92Q353.40-7.80 351.94-5.24Q350.48-2.68 347.92-1.22Q345.36 0.24 342.20 0.24L342.20 0.24Q339.36 0.24 337.06-0.98Q334.76-2.20 333.44-4.32L333.44-4.32L333.44 8.16Q333.44 8.72 333.12 9.04Q332.80 9.36 332.24 9.36L332.24 9.36Q331.72 9.36 331.38 9.04Q331.04 8.72 331.04 8.16L331.04 8.16L331.04-11.08L331.04-11.16Q331.08-14.24 332.56-16.76Q334.04-19.28 336.58-20.70Q339.12-22.12 342.20-22.12L342.20-22.12ZM342.20-2Q344.68-2 346.68-3.16Q348.68-4.32 349.84-6.36Q351.00-8.40 351.00-10.92L351.00-10.92Q351.00-13.44 349.84-15.48Q348.68-17.52 346.68-18.70Q344.68-19.88 342.20-19.88L342.20-19.88Q339.72-19.88 337.72-18.70Q335.72-17.52 334.58-15.48Q333.44-13.44 333.44-10.92L333.44-10.92Q333.44-8.40 334.58-6.36Q335.72-4.32 337.72-3.16Q339.72-2 342.20-2L342.20-2Z M362.20-20.68Q362.20-21.24 362.54-21.56Q362.88-21.88 363.40-21.88L363.40-21.88Q363.96-21.88 364.28-21.56Q364.60-21.24 364.60-20.68L364.60-20.68L364.60-1.20Q364.60-0.68 364.28-0.34Q363.96 0 363.40 0L363.40 0Q362.88 0 362.54-0.34Q362.20-0.68 362.20-1.20L362.20-1.20L362.20-20.68ZM363.40-30.20Q364.16-30.20 364.70-29.72Q365.24-29.24 365.24-28.36L365.24-28.36Q365.24-27.56 364.70-27.02Q364.16-26.48 363.36-26.48L363.36-26.48Q362.56-26.48 362.04-27.02Q361.52-27.56 361.52-28.36L361.52-28.36Q361.52-29.24 362.08-29.72Q362.64-30.20 363.40-30.20L363.40-30.20Z M383.68-22.08Q386.60-22.08 388.90-20.70Q391.20-19.32 392.48-16.88Q393.76-14.44 393.76-11.32L393.76-11.32Q393.76-10.80 393.44-10.50Q393.12-10.20 392.60-10.20L392.60-10.20L375.84-10.20Q375.96-7.84 377.08-5.98Q378.20-4.12 380.08-3.08Q381.96-2.04 384.28-2.04L384.28-2.04Q385.84-2.04 387.42-2.58Q389.00-3.12 389.92-4L389.92-4Q390.32-4.32 390.76-4.32L390.76-4.32Q391.20-4.32 391.48-4.08L391.48-4.08Q391.92-3.72 391.92-3.24L391.92-3.24Q391.92-2.84 391.56-2.48L391.56-2.48Q390.28-1.32 388.22-0.56Q386.16 0.20 384.28 0.20L384.28 0.20Q381.12 0.20 378.66-1.22Q376.20-2.64 374.80-5.18Q373.40-7.72 373.40-10.92L373.40-10.92Q373.40-14.16 374.70-16.70Q376.00-19.24 378.34-20.66Q380.68-22.08 383.68-22.08L383.68-22.08ZM383.68-19.84Q380.56-19.84 378.42-17.76Q376.28-15.68 375.88-12.28L375.88-12.28L391.44-12.28Q391.16-15.68 389.04-17.76Q386.92-19.84 383.68-19.84L383.68-19.84Z M408.44-22.12Q413.48-22.12 416.08-18.52L416.08-18.52Q416.32-18.24 416.32-17.84L416.32-17.84Q416.32-17.28 415.68-16.92L415.68-16.92Q415.28-16.76 415.08-16.76L415.08-16.76Q414.48-16.76 414.08-17.28L414.08-17.28Q412.04-19.88 408.36-19.88L408.36-19.88Q405.92-19.88 404.48-18.82Q403.04-17.76 403.04-16.20L403.04-16.20Q403.04-14.60 404.42-13.64Q405.80-12.68 409.04-12.20L409.04-12.20Q413.28-11.60 415.14-9.94Q417.00-8.28 417.00-5.92L417.00-5.92Q417.00-4.08 415.82-2.68Q414.64-1.28 412.68-0.52Q410.72 0.24 408.40 0.24L408.40 0.24Q406.08 0.24 403.88-0.58Q401.68-1.40 400.24-3.08L400.24-3.08Q399.96-3.40 399.96-3.80L399.96-3.80Q399.96-4.36 400.48-4.72L400.48-4.72Q400.72-4.92 401.16-4.92L401.16-4.92Q401.72-4.92 402.08-4.48L402.08-4.48Q404.08-2.04 408.52-2.04L408.52-2.04Q411.68-2.04 413.18-3.16Q414.68-4.28 414.68-6.04L414.68-6.04Q414.68-9.20 408.56-10.08L408.56-10.08Q404.68-10.64 402.70-12.20Q400.72-13.76 400.72-15.96L400.72-15.96Q400.72-18.88 402.86-20.50Q405.00-22.12 408.44-22.12L408.44-22.12Z"/></g>
</svg>
</g><g opacity="1" transform="rotate(0 148.3326 71.6837)">
<svg width="77.0828" height="98.6564" x="148.3326" y="71.6837" version="1.1" preserveAspectRatio="none" viewBox="19.899999618530273 10.100000381469727 63.599998474121094 81.4000015258789">
  <g transform="matrix(1 0 0 1 0 0)" class="icon1"><path d="M53.5,40.4l-0.8,18H52c-0.6,0-1,0.4-1,1v27c0,2.8,2.3,5.1,5.1,5.1c2.8,0,5.1-2.3,5.1-5.1v-27c0-0.6-0.4-1-1-1h-0.7l-0.8-18  c4.5-0.3,8.1-4.1,8.1-8.7V11.5c0-0.6-0.4-1-1-1H46.4c-0.6,0-1,0.4-1,1v20.2C45.4,36.2,49,40,53.5,40.4z M59.3,60.3v26  c0,1.7-1.4,3.1-3.1,3.1c-1.7,0-3.1-1.4-3.1-3.1v-26H59.3z M54.7,58.3l0.8-17.8h1.3l0.8,17.8H54.7z M47.4,12.5h17.4v19.2  c0,3.7-3,6.7-6.7,6.7h-4c-3.7,0-6.7-3-6.7-6.7V12.5z"></path><path d="M60.3,32.8c0.6,0,1-0.4,1-1V17.4c0-0.6-0.4-1-1-1s-1,0.4-1,1v14.4C59.3,32.4,59.7,32.8,60.3,32.8z"></path><path d="M56.2,32.8c0.6,0,1-0.4,1-1V17.4c0-0.6-0.4-1-1-1s-1,0.4-1,1v14.4C55.2,32.4,55.7,32.8,56.2,32.8z"></path><path d="M52.2,32.8c0.6,0,1-0.4,1-1V17.4c0-0.6-0.4-1-1-1s-1,0.4-1,1v14.4C51.2,32.4,51.6,32.8,52.2,32.8z"></path><circle cx="56.1" cy="85.6" r="1.2"></circle><circle cx="31.7" cy="85.7" r="1.2"></circle><path d="M29.1,40.2l-0.8,18.2h-0.7c-0.6,0-1,0.4-1,1v27c0,2.8,2.3,5.1,5.1,5.1s5.1-2.3,5.1-5.1v-27c0-0.6-0.4-1-1-1h-0.7l-0.8-18.2  c5.3-1.2,9.2-5.9,9.2-11.5c0-6.4-5-18.6-11.8-18.6S19.9,22.3,19.9,28.7C19.9,34.3,23.8,39,29.1,40.2z M34.8,60.4v26  c0,1.7-1.4,3.1-3.1,3.1s-3.1-1.4-3.1-3.1v-26H34.8z M30.3,58.4l0.8-17.8h1.3l0.8,17.8H30.3z M31.7,12.1c5,0,9.8,10.5,9.8,16.6  c0,5.4-4.4,9.8-9.8,9.8s-9.8-4.4-9.8-9.8C21.9,22.6,26.7,12.1,31.7,12.1z"></path><circle cx="78.4" cy="85.6" r="1.2"></circle><path d="M69.3,54.7h5.8v3.6h-0.8c-0.6,0-1,0.4-1,1v27c0,2.8,2.3,5.1,5.1,5.1s5.1-2.3,5.1-5.1v-27c0-0.6-0.4-1-1-1h-1V11.7  c0-0.3-0.1-0.6-0.3-0.7c-0.2-0.2-0.5-0.3-0.8-0.2c-0.3,0-3.4,0.5-6.4,6.2c-3.8,7.3-5.7,19.7-5.7,36.8C68.3,54.3,68.8,54.7,69.3,54.7  z M81.6,60.3v26c0,1.7-1.4,3.1-3.1,3.1s-3.1-1.4-3.1-3.1v-26H81.6z M79.6,13.2v45.1h-2.5v-4.6c0-0.6-0.4-1-1-1h-5.8  C70.5,22.4,77,15,79.6,13.2z"></path></g>
</svg>
</g></svg></svg>